grf
version=1
nRows=36
nColumns=19
inDegrees=yes
endheader
time	ground_force_1_vx	ground_force_1_vy	ground_force_1_vz	ground_force_1_px	ground_force_1_py	ground_force_1_pz	ground_moment_1_mx	ground_moment_1_my	ground_moment_1_mz	ground_force_2_vx	ground_force_2_vy	ground_force_2_vz	ground_force_2_px	ground_force_2_py	ground_force_2_pz	ground_moment_2_mx	ground_moment_2_my	ground_moment_2_mz
12.405000	-12.492306	1348.279432	-135.399274	0.126875	0.000000	-1.067283	0.000000	22.140606	0.000000	-5.548409	1425.299323	156.655977	0.122079	0.000000	-1.395962	0.000000	-21.895786	-0.000000
12.406000	-12.234059	1348.246001	-135.250483	0.126312	0.000000	-1.066747	0.000000	22.119969	0.000000	-5.484450	1424.524857	156.561811	0.122885	0.000000	-1.397043	0.000000	-21.873072	-0.000000
12.407000	-11.970468	1348.183901	-135.109732	0.126580	0.000000	-1.064318	0.000000	22.097783	0.000000	-5.411022	1423.731425	156.468166	0.122049	0.000000	-1.396602	0.000000	-21.850840	-0.000000
12.408000	-11.702677	1348.091733	-134.977395	0.125449	0.000000	-1.065039	0.000000	22.074028	0.000000	-5.327645	1422.920722	156.375279	0.122490	0.000000	-1.396311	0.000000	-21.828977	-0.000000
12.409000	-11.431920	1347.967852	-134.853847	0.126063	0.000000	-1.065323	0.000000	22.048697	0.000000	-5.234040	1422.094807	156.283403	0.122494	0.000000	-1.396644	0.000000	-21.807383	-0.000000
12.410000	-11.159536	1347.810787	-134.739418	0.125862	0.000000	-1.065662	0.000000	22.021815	0.000000	-5.130098	1421.256101	156.192807	0.122293	0.000000	-1.396294	0.000000	-21.785966	-0.000000
12.411000	-10.886915	1347.619964	-134.634355	0.126410	0.000000	-1.064936	0.000000	21.993438	0.000000	-5.015880	1420.407448	156.103767	0.122278	0.000000	-1.394982	0.000000	-21.764641	-0.000000
12.412000	-10.615456	1347.396219	-134.538798	0.125899	0.000000	-1.065719	0.000000	21.963660	0.000000	-4.891619	1419.551972	156.016579	0.122133	0.000000	-1.395755	0.000000	-21.743324	-0.000000
12.413000	-10.346558	1347.141833	-134.452799	0.125979	0.000000	-1.065596	0.000000	21.932590	0.000000	-4.757706	1418.692631	155.931585	0.122366	0.000000	-1.395342	0.000000	-21.721949	-0.000000
12.414000	-10.081632	1346.860265	-134.376360	0.126183	0.000000	-1.065007	0.000000	21.900345	0.000000	-4.614694	1417.831825	155.849164	0.122018	0.000000	-1.396013	0.000000	-21.700465	-0.000000
12.415000	-9.822093	1346.555887	-134.309443	0.125879	0.000000	-1.065783	0.000000	21.867043	0.000000	-4.463299	1416.971421	155.769712	0.123332	0.000000	-1.395999	0.000000	-21.678832	-0.000000
12.416000	-9.569331	1346.233788	-134.251994	0.125248	0.000000	-1.065576	0.000000	21.832807	0.000000	-4.304386	1416.113082	155.693614	0.122072	0.000000	-1.395814	0.000000	-21.657007	-0.000000
12.417000	-9.324677	1345.899593	-134.203921	0.125772	0.000000	-1.065496	0.000000	21.797775	0.000000	-4.138934	1415.258402	155.621212	0.122916	0.000000	-1.397945	0.000000	-21.634959	-0.000000
12.418000	-9.089393	1345.559205	-134.165068	0.125539	0.000000	-1.065789	0.000000	21.762088	0.000000	-3.968021	1414.408708	155.552780	0.122060	0.000000	-1.395350	0.000000	-21.612682	-0.000000
12.419000	-8.864672	1345.218491	-134.135238	0.125743	0.000000	-1.064475	0.000000	21.725894	0.000000	-3.792859	1413.564816	155.488551	0.122213	0.000000	-1.395981	0.000000	-21.590189	-0.000000
12.420000	-8.651616	1344.882954	-134.114253	0.124807	0.000000	-1.065768	0.000000	21.689340	0.000000	-3.614858	1412.726770	155.428734	0.122623	0.000000	-1.395590	-0.000000	-21.567480	-0.000000
12.421000	-8.451180	1344.557474	-134.101953	0.125118	0.000000	-1.066083	0.000000	21.652579	0.000000	-3.435607	1411.893577	155.373467	0.122622	0.000000	-1.396462	-0.000000	-21.544546	-0.000000
12.422000	-8.264095	1344.246277	-134.098186	0.124993	0.000000	-1.066014	0.000000	21.615761	0.000000	-3.256780	1411.063334	155.322806	0.122858	0.000000	-1.396692	-0.000000	-21.521384	-0.000000
12.423000	-8.090834	1343.953022	-134.102809	0.125405	0.000000	-1.066011	0.000000	21.579018	0.000000	-3.080055	1410.233653	155.276799	0.122617	0.000000	-1.395943	-0.000000	-21.498006	-0.000000
12.424000	-7.931615	1343.680705	-134.115687	0.125582	0.000000	-1.065313	0.000000	21.542470	0.000000	-2.907097	1409.402029	155.235536	0.122320	0.000000	-1.396868	-0.000000	-21.474432	-0.000000
12.425000	-7.786367	1343.431481	-134.136630	0.125003	0.000000	-1.066471	0.000000	21.506228	0.000000	-2.739558	1408.566195	155.199092	0.122826	0.000000	-1.396227	-0.000000	-21.450676	-0.000000
12.426000	-7.654742	1343.206669	-134.165378	0.125466	0.000000	-1.065333	0.000000	21.470389	0.000000	-2.579058	1407.724462	155.167454	0.122403	0.000000	-1.396783	-0.000000	-21.426750	-0.000000
12.427000	-7.536247	1343.007032	-134.201651	0.125361	0.000000	-1.065526	0.000000	21.435032	0.000000	-2.427181	1406.875849	155.140490	0.122990	0.000000	-1.397081	-0.000000	-21.402660	-0.000000
12.428000	-7.430356	1342.833146	-134.245199	0.126128	0.000000	-1.066247	0.000000	21.400224	0.000000	-2.285464	1406.020208	155.117930	0.122828	0.000000	-1.397390	-0.000000	-21.378401	-0.000000
12.429000	-7.336510	1342.685710	-134.295808	0.124881	0.000000	-1.066813	0.000000	21.366027	0.000000	-2.155371	1405.158450	155.099345	0.122641	0.000000	-1.396477	-0.000000	-21.353943	-0.000000
12.430000	-7.254084	1342.565870	-134.353264	0.125605	0.000000	-1.065981	0.000000	21.332523	0.000000	-2.038284	1404.292471	155.084151	0.122460	0.000000	-1.396424	-0.000000	-21.329231	-0.000000
12.431000	-7.182383	1342.475341	-134.417352	0.125564	0.000000	-1.065902	0.000000	21.299819	0.000000	-1.935510	1403.424742	155.071648	0.122628	0.000000	-1.396314	-0.000000	-21.304179	-0.000000
12.432000	-7.120704	1342.416171	-134.487866	0.125239	0.000000	-1.065808	0.000000	21.268026	0.000000	-1.848258	1402.557888	155.061051	0.122529	0.000000	-1.396085	-0.000000	-21.278685	-0.000000
12.433000	-7.068397	1342.390580	-134.564634	0.126433	0.000000	-1.065360	0.000000	21.237233	0.000000	-1.777588	1401.694486	155.051480	0.122647	0.000000	-1.395806	-0.000000	-21.252634	-0.000000
12.434000	-7.024904	1342.401140	-134.647493	0.124880	0.000000	-1.065540	0.000000	21.207489	0.000000	-1.724408	1400.837065	155.041962	0.122770	0.000000	-1.396979	-0.000000	-21.225900	-0.000000
12.435000	-6.989710	1342.450729	-134.736258	0.124698	0.000000	-1.066603	0.000000	21.178810	0.000000	-1.689483	1399.988079	155.031443	0.122631	0.000000	-1.396695	-0.000000	-21.198357	-0.000000
12.436000	-6.962271	1342.541775	-134.830700	0.125322	0.000000	-1.065028	0.000000	21.151209	0.000000	-1.673405	1399.149749	155.018815	0.123131	0.000000	-1.396622	-0.000000	-21.169899	-0.000000
12.437000	-6.941942	1342.675499	-134.930552	0.125713	0.000000	-1.064809	0.000000	21.124705	0.000000	-1.676491	1398.323906	155.002930	0.122856	0.000000	-1.396070	-0.000000	-21.140467	-0.000000
12.438000	-6.927923	1342.852068	-135.035517	0.125721	0.000000	-1.064797	0.000000	21.099326	0.000000	-1.698660	1397.511874	154.982628	0.122349	0.000000	-1.395882	-0.000000	-21.110058	-0.000000
12.439000	-6.919253	1343.071374	-135.145290	0.125453	0.000000	-1.064832	0.000000	21.075098	0.000000	-1.739418	1396.714400	154.956766	0.122792	0.000000	-1.397405	-0.000000	-21.078731	-0.000000
12.440000	-6.914881	1343.333388	-135.259607	0.125323	0.000000	-1.065834	0.000000	21.052051	0.000000	-1.797909	1395.931850	154.924247	0.123328	0.000000	-1.396165	-0.000000	-21.046595	-0.000000
